<?xml version="1.0" standalone="no"?>
<!DOCTYPE svg PUBLIC "-//W3C//DTD SVG 20010904//EN"
 "http://www.w3.org/TR/2001/REC-SVG-20010904/DTD/svg10.dtd">
<svg version="1.0" xmlns="http://www.w3.org/2000/svg"
 width="264.000000pt" height="280.000000pt" viewBox="0 0 1264.000000 1280.000000"
 preserveAspectRatio="xMidYMid meet">
<metadata>
Created by potrace 1.15, written by Peter Selinger 2001-2017
</metadata>
<g transform="translate(0.000000,1280.000000) scale(0.100000,-0.100000)"
fill="#1631a8" stroke="none">
<path d="M6213 12786 c-239 -58 -402 -301 -364 -540 62 -386 522 -547 807
-283 100 93 154 216 154 352 -1 134 -39 231 -131 329 -120 129 -297 183 -466
142z"/>
<path d="M6160 11759 c-411 -48 -690 -299 -771 -694 -17 -80 -19 -141 -19
-539 l0 -448 33 6 c325 66 499 87 782 93 328 8 618 -19 893 -80 56 -13 104
-21 107 -19 10 10 5 811 -5 911 -39 375 -245 640 -572 735 -142 41 -292 53
-448 35z"/>
<path d="M2011 11174 c-168 -45 -302 -181 -346 -351 -70 -270 119 -551 400
-594 247 -39 493 133 544 379 63 301 -171 584 -479 581 -36 0 -89 -7 -119 -15z"/>
<path d="M10413 11055 c-321 -70 -481 -439 -313 -719 164 -273 545 -316 763
-87 118 124 161 283 122 450 -21 89 -59 155 -130 226 -69 68 -146 110 -243
131 -81 17 -118 17 -199 -1z"/>
<path d="M2960 10579 c-200 -52 -405 -198 -551 -391 -196 -261 -239 -531 -129
-816 59 -155 120 -228 482 -590 l333 -332 80 111 c292 407 695 783 1120 1044
l127 78 -349 349 c-365 366 -428 419 -577 489 -169 79 -373 101 -536 58z"/>
<path d="M9404 10489 c-129 -12 -270 -66 -395 -149 -38 -25 -197 -175 -391
-368 l-327 -326 57 -34 c447 -270 866 -668 1182 -1124 l67 -97 310 312 c170
172 324 333 342 359 51 76 119 227 142 313 29 113 29 273 0 378 -44 160 -129
303 -256 432 -224 227 -470 330 -731 304z"/>
<path d="M6205 10084 c-854 -37 -1619 -327 -2274 -861 -136 -112 -403 -378
-512 -513 -463 -569 -732 -1192 -831 -1925 -19 -134 -22 -210 -23 -465 0 -319
6 -400 51 -658 243 -1414 1290 -2579 2677 -2977 185 -53 360 -89 572 -117 217
-30 696 -32 910 -5 336 44 632 118 929 233 873 340 1592 996 2013 1839 345
689 467 1485 347 2265 -92 594 -347 1198 -707 1675 -232 306 -529 595 -847
822 -449 320 -1007 548 -1560 637 -228 37 -548 58 -745 50z"/>
<path d="M1735 7296 c-342 -54 -571 -244 -659 -549 -69 -238 -49 -542 50 -755
115 -250 342 -422 639 -483 77 -16 137 -19 424 -19 l334 0 -7 43 c-55 335 -70
532 -63 817 8 315 50 627 117 867 11 40 20 77 20 83 0 15 -754 11 -855 -4z"/>
<path d="M10103 7133 c23 -107 60 -314 74 -421 25 -187 25 -724 0 -912 -17
-122 -59 -371 -74 -428 l-5 -23 383 3 384 4 90 27 c259 80 448 231 551 442 79
163 113 364 95 559 -38 395 -223 634 -578 743 l-88 27 -419 4 -419 3 6 -28z"/>
<path d="M400 6969 c-30 -5 -88 -25 -129 -45 -300 -148 -363 -547 -122 -777
198 -189 504 -182 687 15 144 156 173 356 80 548 -63 130 -209 237 -356 260
-74 11 -84 11 -160 -1z"/>
<path d="M12029 6776 c-165 -46 -300 -185 -344 -353 -70 -269 120 -551 401
-593 287 -43 554 188 554 480 0 212 -155 410 -364 466 -63 17 -185 17 -247 0z"/>
<path d="M2689 4053 c-239 -243 -291 -301 -330 -368 -93 -161 -132 -294 -132
-455 0 -165 44 -299 148 -455 138 -209 382 -392 591 -445 160 -41 361 -22 517
48 140 64 203 115 484 395 l272 270 -102 70 c-439 300 -828 706 -1101 1150
-27 42 -51 77 -55 77 -4 0 -135 -129 -292 -287z"/>
<path d="M9555 4168 c-298 -449 -712 -853 -1163 -1138 l-54 -33 289 -289 c175
-176 316 -308 361 -339 273 -190 579 -222 850 -89 149 74 297 202 409 354 220
298 229 653 24 962 -46 69 -125 154 -353 382 l-294 293 -69 -103z"/>
<path d="M2001 2684 c-208 -56 -361 -252 -361 -464 0 -74 25 -172 58 -234 92
-171 306 -278 496 -247 196 31 350 173 401 368 41 156 -10 330 -132 455 -113
115 -302 165 -462 122z"/>
<path d="M10420 2570 c-151 -28 -284 -129 -349 -265 -90 -188 -59 -389 83
-543 179 -193 481 -203 677 -24 268 246 180 683 -163 810 -64 24 -182 35 -248
22z"/>
<path d="M5373 2158 c4 -435 7 -457 91 -633 54 -112 86 -160 162 -237 184
-189 474 -281 786 -248 409 43 665 264 753 650 14 61 18 145 22 463 3 213 2
387 -1 387 -3 0 -72 -13 -153 -30 -447 -89 -871 -100 -1323 -34 -102 15 -287
49 -323 60 -18 6 -18 -11 -14 -378z"/>
<path d="M6196 954 c-139 -34 -258 -133 -323 -269 -59 -126 -58 -282 3 -412
56 -118 186 -223 319 -258 328 -85 651 211 595 544 -47 280 -319 462 -594 395z"/>
</g>
</svg>
